HIERARCHY
ROOT root
{
	OFFSET 0.000000 0.000000 0.000000
	CHANNELS 6 Xposition Yposition Zposition Zrotation Yrotation Xrotation
	JOINT lhip
	{
		OFFSET 0.058581 -0.082280 -0.017664
		CHANNELS 3 Zrotation Yrotation Xrotation
		JOINT lknee
		{
			OFFSET 0.043451 -0.386469 0.008037
			CHANNELS 3 Zrotation Yrotation Xrotation
			JOINT lankle
			{
				OFFSET -0.014790 -0.426874 -0.037428
				CHANNELS 3 Zrotation Yrotation Xrotation
				JOINT ltoe
				{
					OFFSET 0.041054 -0.060286 0.122042
					CHANNELS 3 Zrotation Yrotation Xrotation
					End Site
					{
						OFFSET 0.000000 0.000000 0.000000
					}
				}
			}
		}
	}
	JOINT rhip
	{
		OFFSET -0.060310 -0.090513 -0.013543
		CHANNELS 3 Zrotation Yrotation Xrotation
		JOINT rknee
		{
			OFFSET -0.043257 -0.383688 -0.004843
			CHANNELS 3 Zrotation Yrotation Xrotation
			JOINT rankle
			{
				OFFSET 0.019056 -0.420046 -0.034562
				CHANNELS 3 Zrotation Yrotation Xrotation
				JOINT rtoe
				{
					OFFSET -0.034840 -0.062106 0.130323
					CHANNELS 3 Zrotation Yrotation Xrotation
					End Site
					{
						OFFSET 0.000000 0.000000 0.000000
					}
				}
			}
		}
	}
	JOINT lowerback
	{
		OFFSET 0.004439 0.124404 -0.038385
		CHANNELS 3 Zrotation Yrotation Xrotation
		JOINT upperback
		{
			OFFSET 0.004488 0.137956 0.026820
			CHANNELS 3 Zrotation Yrotation Xrotation
			JOINT chest
			{
				OFFSET -0.002265 0.056032 0.002855
				CHANNELS 3 Zrotation Yrotation Xrotation
				JOINT lowerneck
				{
					OFFSET -0.013390 0.211636 -0.033468
					CHANNELS 3 Zrotation Yrotation Xrotation
					JOINT upperneck
					{
						OFFSET 0.010113 0.088937 0.050410
						CHANNELS 3 Zrotation Yrotation Xrotation
						End Site
						{
							OFFSET 0.000000 0.000000 0.000000
						}
					}
				}
				JOINT lclavicle
				{
					OFFSET 0.071702 0.114000 -0.018898
					CHANNELS 3 Zrotation Yrotation Xrotation
					JOINT lshoulder
					{
						OFFSET 0.122921 0.045205 -0.019046
						CHANNELS 3 Zrotation Yrotation Xrotation
						JOINT lelbow
						{
							OFFSET 0.255332 -0.015649 -0.022946
							CHANNELS 3 Zrotation Yrotation Xrotation
							JOINT lwrist
							{
								OFFSET 0.265709 0.012698 -0.007375
								CHANNELS 3 Zrotation Yrotation Xrotation
								End Site
								{
									OFFSET 0.000000 0.000000 0.000000
								}
							}
						}
					}
				}
				JOINT rclavicle
				{
					OFFSET -0.082954 0.112472 -0.023707
					CHANNELS 3 Zrotation Yrotation Xrotation
					JOINT rshoulder
					{
						OFFSET -0.113228 0.046853 -0.008472
						CHANNELS 3 Zrotation Yrotation Xrotation
						JOINT relbow
						{
							OFFSET -0.260127 -0.014369 -0.031269
							CHANNELS 3 Zrotation Yrotation Xrotation
							JOINT rwrist
							{
								OFFSET -0.269108 0.006794 -0.006027
								CHANNELS 3 Zrotation Yrotation Xrotation
								End Site
								{
									OFFSET 0.000000 0.000000 0.000000
								}
							}
						}
					}
				}
			}
		}
	}
}
MOTION
Frames: 13
Frame Time: 0.033333
0.362408 -0.391546 0.974289 -178.309067 -0.124145 92.844227 8.528152 1.271413 -12.952714 -5.742268 -4.391888 12.764079 0.961862 4.585055 -7.556165 0.000000 -0.000000 0.000000 -9.109595 -5.571878 -17.401579 0.757244 -3.757927 18.751752 5.135429 -3.562623 -4.045151 0.000000 -0.000000 0.000000 1.185801 3.089100 20.090047 1.684438 -2.708538 4.010689 0.822953 1.408710 -1.745048 1.676518 5.498626 17.008308 6.254958 -0.322822 23.332249 -22.659465 -23.812877 6.036273 -70.073785 -23.567399 26.245040 -1.578707 -27.087511 6.615217 14.610474 8.613727 -40.296906 25.215277 23.369585 9.316406 68.864643 27.472884 20.717824 -14.200343 17.443977 -16.245800 -2.241926 -4.054619 -29.423395 
0.362562 -0.391657 0.974281 -178.629814 -0.109364 92.950444 8.532916 1.332172 -13.048162 -5.680542 -4.136645 12.844731 1.031137 4.722069 -7.593980 0.000000 -0.000000 0.000000 -9.037012 -5.400974 -17.577460 0.758383 -3.666697 18.678837 5.102212 -3.507438 -3.964079 0.000000 -0.000000 0.000000 0.981676 3.071143 20.004126 1.675586 -2.712927 3.961976 0.791542 1.328782 -1.707654 1.781165 5.761369 16.975271 6.200121 -0.282425 23.414558 -22.658017 -23.828075 6.151509 -70.064050 -23.631673 26.304876 -1.429387 -27.063010 6.761656 14.227390 8.432753 -40.697211 25.272582 23.176239 9.342545 69.045892 27.665869 20.854983 -14.327876 17.257311 -16.050455 -2.563921 -4.056798 -29.785145 
0.363061 -0.391267 0.974178 -179.026619 -0.023455 92.938992 8.638337 1.480559 -12.922201 -5.604408 -4.162267 12.866944 0.968543 4.771942 -7.701452 0.000000 -0.000000 0.000000 -8.872812 -5.254344 -17.608935 0.739559 -3.443125 18.590471 5.164083 -3.436134 -3.916540 0.000000 -0.000000 0.000000 0.707813 2.925275 20.043708 1.594772 -2.748338 3.960314 0.841911 1.386264 -1.683722 1.663656 5.845904 17.022952 6.289834 0.177037 23.313144 -22.617008 -23.745961 5.967620 -70.199106 -23.590666 26.206001 -1.548753 -26.905837 6.846572 14.730530 8.771423 -40.348567 25.020489 23.145394 9.227385 69.191044 27.507847 20.838137 -14.176778 17.609797 -16.078304 -2.406460 -4.264785 -29.386406 
0.363208 -0.391179 0.974400 -179.435454 0.141122 92.947548 8.839386 1.542046 -12.789250 -5.570273 -4.086027 12.813664 0.931830 4.844847 -7.755993 0.000000 -0.000000 0.000000 -8.660091 -5.153609 -17.597970 0.745474 -3.357245 18.378086 5.098336 -3.275764 -3.798869 0.000000 -0.000000 0.000000 0.642843 2.883976 20.058120 1.579565 -2.769471 3.953102 0.826329 1.331709 -1.686826 1.606577 6.089226 17.097976 6.277314 0.289289 23.372305 -22.685673 -23.796703 6.078459 -70.100768 -23.617703 26.137831 -1.525976 -27.021878 6.740989 14.496977 8.618079 -40.426163 24.924927 23.143462 9.248895 69.333071 27.538625 20.897287 -14.411917 17.494913 -16.055884 -2.440670 -4.317063 -29.421956 
0.363168 -0.390916 0.974437 -179.746809 0.278441 93.007031 8.986067 1.591896 -12.818230 -5.525761 -3.894930 12.912531 1.030734 4.934633 -7.836255 0.000000 -0.000000 0.000000 -8.516364 -5.128844 -17.633687 0.845979 -3.223219 18.193351 5.239426 -3.175814 -3.685815 0.000000 -0.000000 0.000000 0.655859 2.845245 19.969746 1.488397 -2.884328 4.044407 0.730091 1.294781 -1.728437 1.559805 6.366240 17.311497 6.465544 0.646663 23.102077 -22.709299 -23.995408 6.127266 -70.093809 -23.624681 26.175237 -1.555497 -26.920513 6.703247 14.704714 9.025274 -40.426038 24.882168 23.092287 9.307347 69.436558 27.576232 20.877726 -14.539377 17.520256 -16.092621 -2.675157 -4.432544 -29.441994 
0.363189 -0.390382 0.974441 179.997481 0.362823 92.987226 9.070194 1.632469 -12.728371 -5.462438 -3.747928 12.974114 1.000540 4.981898 -7.893295 0.000000 -0.000000 0.000000 -8.487567 -5.016382 -17.518755 0.941378 -3.220481 17.991029 5.196188 -2.999029 -3.574937 0.000000 -0.000000 0.000000 0.502248 2.716296 19.974536 1.440119 -3.001763 4.079510 0.694515 1.219670 -1.753491 1.656778 6.668780 17.397522 6.441754 0.831492 23.122322 -22.694225 -23.980800 6.216946 -70.012390 -23.616469 26.148828 -1.415505 -27.077482 6.772080 13.991121 8.447880 -40.794701 24.838625 23.065173 9.239733 69.573624 27.543264 21.064132 -14.515445 17.428780 -15.982684 -3.010802 -4.499942 -29.778223 
0.363778 -0.389990 0.974389 179.559870 0.482288 93.014334 9.239935 1.824770 -12.611934 -5.451666 -3.588910 12.947958 1.048430 5.115136 -7.997274 0.000000 -0.000000 0.000000 -8.267009 -4.903811 -17.636446 0.943623 -3.026789 17.984634 5.245571 -2.919369 -3.564590 0.000000 -0.000000 0.000000 0.270366 2.708837 19.910517 1.384833 -3.035827 4.109512 0.695427 1.224178 -1.737219 1.591440 6.871904 17.437055 6.605610 1.152961 23.004657 -22.696280 -24.024550 6.213326 -70.003461 -23.706668 26.071718 -1.553417 -26.919339 6.498938 14.527727 8.641282 -40.455412 24.705470 22.980692 9.209182 69.639394 27.449663 21.016290 -14.553355 17.676329 -16.061923 -2.727138 -4.561851 -29.379667 
0.363558 -0.389426 0.974552 179.256867 0.579223 92.958212 9.384917 1.880562 -12.479003 -5.517771 -3.382289 13.035421 0.993706 5.134125 -8.066292 0.000000 -0.000000 0.000000 -8.212337 -4.785759 -17.539584 1.035646 -2.975290 17.820793 5.243771 -2.783947 -3.443899 0.000000 -0.000000 0.000000 0.194607 2.610378 19.993701 1.318417 -3.109068 4.130245 0.642782 1.145666 -1.830913 1.625725 7.190327 17.429132 6.547785 1.369434 23.162132 -22.760339 -24.041060 6.262603 -69.954653 -23.637220 26.101974 -1.379673 -26.975193 6.462653 14.316010 8.364947 -40.484366 24.716091 22.815806 9.094205 69.757890 27.464917 21.119876 -14.578307 17.497591 -16.005544 -2.568681 -4.504113 -29.305869 
0.363773 -0.389025 0.974432 178.971760 0.626162 92.981369 9.436781 1.921970 -12.427305 -5.491941 -3.292055 13.065661 1.078664 5.299822 -8.146532 0.000000 -0.000000 0.000000 -8.182854 -4.796678 -17.532237 1.144737 -2.893931 17.693059 5.214487 -2.682913 -3.378117 0.000000 -0.000000 0.000000 -0.020437 2.582948 19.896065 1.264177 -3.232653 4.169673 0.634127 1.153307 -1.809765 1.671051 7.402359 17.503305 6.608489 1.640623 23.046276 -22.755320 -24.191401 6.288569 -69.850977 -23.634087 26.142372 -1.522216 -27.028457 6.329976 14.670374 8.609722 -40.620105 24.610841 22.915268 9.193828 69.833916 27.462761 21.219025 -14.683778 17.571336 -16.126253 -2.979800 -4.698690 -29.468848 
0.363768 -0.388559 0.974547 178.610830 0.803520 92.936227 9.609226 2.094884 -12.275376 -5.439605 -3.141286 13.079176 1.074714 5.349694 -8.187944 0.000000 -0.000000 0.000000 -7.939268 -4.630742 -17.495961 1.128507 -2.653064 17.572259 5.322785 -2.657930 -3.336524 0.000000 -0.000000 0.000000 -0.128548 2.509503 19.963678 1.234345 -3.197038 4.138589 0.639307 1.127836 -1.831545 1.737297 7.526962 17.493304 6.569449 1.960065 23.206083 -22.882153 -24.103916 6.341362 -69.939245 -23.853833 25.976038 -1.610048 -26.447031 6.380793 14.680729 8.365786 -40.223969 24.500846 22.794164 9.200193 69.833774 27.562391 21.140871 -14.400090 17.539294 -16.128644 -3.331344 -4.612031 -29.847615 
0.363490 -0.388092 0.974625 178.421053 0.882898 93.007097 9.603783 2.150387 -12.327346 -5.323199 -3.081327 13.172259 1.018234 5.443462 -8.288205 0.000000 -0.000000 0.000000 -7.832499 -4.572705 -17.573951 1.124912 -2.492688 17.525178 5.328854 -2.663420 -3.326928 0.000000 -0.000000 0.000000 -0.248281 2.503682 19.894984 1.242747 -3.223738 3.952056 0.679342 1.024845 -1.668551 1.635692 7.546528 17.535912 6.618294 2.337946 23.120554 -23.078858 -24.168746 6.445399 -69.960141 -23.947081 25.970867 -1.824227 -26.270866 5.827416 16.641737 8.586779 -39.558248 24.425516 22.696103 9.125203 69.836100 27.518961 21.199607 -14.253136 17.637634 -16.197354 -3.945650 -5.032297 -29.619453 
0.363318 -0.387944 0.974958 178.297982 0.951246 93.039747 9.685784 2.204804 -12.343574 -5.403986 -3.053682 13.228409 1.084812 5.503835 -8.329177 0.000000 -0.000000 0.000000 -7.743181 -4.522438 -17.620978 1.097454 -2.453683 17.498325 5.250387 -2.650887 -3.306899 0.000000 -0.000000 0.000000 -0.387684 2.439409 19.843430 1.248752 -3.247953 4.022593 0.699963 0.978207 -1.703081 1.641340 7.814517 17.580613 6.641883 2.465274 23.028537 -22.997867 -24.120273 6.335313 -70.011184 -23.881324 26.081205 -1.683837 -26.467374 6.152309 15.760996 8.827982 -39.833047 24.467370 22.633887 9.066421 69.837097 27.446326 21.282436 -14.369843 17.592963 -16.000575 -3.665552 -5.003020 -29.627177 
0.363176 -0.387288 0.974988 178.084412 0.970577 93.032660 9.956923 2.494537 -12.388989 -5.915721 -2.785197 13.545137 0.994121 5.343206 -8.419171 0.000000 -0.000000 0.000000 -7.771155 -4.509590 -17.573114 1.178491 -2.426732 17.424192 5.399559 -2.575251 -3.275555 0.000000 -0.000000 0.000000 -0.498538 2.539020 19.800017 1.209548 -3.222632 4.046400 0.712842 0.921859 -1.692167 1.691609 7.920139 17.519415 6.609630 2.481180 23.234566 -23.052571 -24.163182 6.394659 -69.937652 -23.881992 26.027629 -1.710794 -26.436063 6.226708 16.018224 8.866704 -39.533045 24.498163 22.536702 9.017771 69.879812 27.403200 21.283227 -14.363507 17.628647 -15.933994 -3.718759 -5.052146 -29.457268 
